<?xml version="1.0" standalone="no"?>
<!DOCTYPE svg PUBLIC "-//W3C//DTD SVG 20010904//EN"
 "http://www.w3.org/TR/2001/REC-SVG-20010904/DTD/svg10.dtd">
<svg version="1.0" xmlns="http://www.w3.org/2000/svg"
 width="800.000000pt" height="800.000000pt" viewBox="0 0 800.000000 800.000000"
 preserveAspectRatio="xMidYMid meet">
<metadata>
Created by potrace 1.11, written by Peter Selinger 2001-2013
</metadata>
<g transform="translate(0.000000,800.000000) scale(0.100000,-0.100000)"
fill="#000000" stroke="none">
<path d="M3705 7989 c-712 -56 -1377 -290 -1960 -687 -934 -637 -1559 -1651
-1709 -2772 -131 -978 104 -1967 662 -2785 637 -934 1651 -1559 2772 -1709
979 -131 1967 104 2785 662 934 636 1559 1651 1709 2772 131 979 -104 1967
-662 2785 -636 934 -1651 1559 -2772 1709 -260 35 -582 45 -825 25z m-796
-2004 c277 -53 473 -233 541 -501 26 -99 40 -263 40 -467 l0 -157 508 2 507 3
6 260 c8 293 20 367 85 500 118 242 404 392 708 372 330 -23 579 -221 668
-534 32 -112 32 -314 0 -428 -72 -251 -257 -423 -532 -495 -73 -19 -120 -23
-332 -27 l-248 -6 0 -507 0 -507 248 -6 c210 -4 260 -8 332 -27 349 -90 550
-348 550 -704 -1 -225 -66 -396 -205 -537 -78 -79 -151 -127 -255 -165 -361
-136 -777 6 -929 316 -73 151 -83 208 -89 508 l-4 262 -508 0 -508 0 -5 -262
c-5 -297 -17 -367 -83 -503 -118 -242 -404 -392 -708 -372 -330 23 -579 221
-668 534 -32 112 -32 314 0 428 72 251 257 423 532 495 73 19 120 23 333 27
l247 6 0 507 0 507 -247 6 c-213 4 -260 8 -333 27 -275 72 -460 244 -532 495
-32 114 -32 316 0 428 82 285 296 477 590 527 79 13 206 11 291 -5z"/>
<path d="M2660 5637 c-162 -37 -266 -154 -292 -329 -26 -171 46 -321 187 -391
87 -42 145 -51 370 -51 l210 -1 3 190 c3 231 -7 307 -53 402 -42 84 -94 134
-173 163 -68 26 -181 33 -252 17z"/>
<path d="M5151 5639 c-149 -29 -254 -150 -281 -324 -6 -38 -9 -155 -8 -260 l3
-190 210 1 c225 0 283 9 370 51 102 51 164 135 186 255 22 122 -17 269 -95
355 -85 94 -242 140 -385 112z"/>
<path d="M3490 4000 l0 -510 510 0 510 0 0 510 0 510 -510 0 -510 0 0 -510z"/>
<path d="M2755 3134 c-169 -14 -293 -83 -350 -195 -73 -142 -47 -344 59 -466
75 -86 233 -136 362 -115 127 21 213 84 265 195 40 86 50 173 47 392 l-3 190
-170 1 c-93 0 -188 -1 -210 -2z"/>
<path d="M4868 3135 c-12 -12 -9 -381 3 -455 13 -84 57 -178 106 -227 134
-134 382 -134 528 -2 81 75 116 153 123 272 10 202 -74 330 -256 388 -56 17
-102 22 -282 26 -118 3 -218 2 -222 -2z"/>
</g>
</svg>
